PathFileType	4	(X/Y/Z)	RBDS015\RBDS015runT35.trc
DataRate	CameraRate	NumFrames	NumMarkers	Units	OrigDataRate	OrigDataStartFrame	OrigNumFrames
150.000000	150.000000	5	33	mm	150.000000	562	4500
Frame#	Time	L.ASIS			L.Heel.Bottom			L.Heel.Lateral			L.Heel.Top			L.Iliac.Crest			L.MT1			L.MT5			L.PSIS			L.Shank.Bottom.Lateral			L.Shank.Bottom.Medial			L.Shank.Top.Lateral			L.Shank.Top.Medial			L.Thigh.Bottom.Lateral			L.Thigh.Bottom.Medial			L.Thigh.Top.Lateral			L.Thigh.Top.Medial			R.ASIS			R.ASY			R.Heel.Bottom			R.Heel.Lateral			R.Heel.Top			R.Iliac.Crest			R.MT1			R.MT5			R.PSIS			R.Shank.Bottom.Lateral			R.Shank.Bottom.Medial			R.Shank.Top.Lateral			R.Shank.Top.Medial			R.Thigh.Bottom.Lateral			R.Thigh.Bottom.Medial			R.Thigh.Top.Lateral			R.Thigh.Top.Medial			
		X1	Y1	Z1	X2	Y2	Z2	X3	Y3	Z3	X4	Y4	Z4	X5	Y5	Z5	X6	Y6	Z6	X7	Y7	Z7	X8	Y8	Z8	X9	Y9	Z9	X10	Y10	Z10	X11	Y11	Z11	X12	Y12	Z12	X13	Y13	Z13	X14	Y14	Z14	X15	Y15	Z15	X16	Y16	Z16	X17	Y17	Z17	X18	Y18	Z18	X19	Y19	Z19	X20	Y20	Z20	X21	Y21	Z21	X22	Y22	Z22	X23	Y23	Z23	X24	Y24	Z24	X25	Y25	Z25	X26	Y26	Z26	X27	Y27	Z27	X28	Y28	Z28	X29	Y29	Z29	X30	Y30	Z30	X31	Y31	Z31	X32	Y32	Z32	X33	Y33	Z33	

563	3.746666666666667	2162.629693659954	1022.041185657019	904.0294288674619	1467.011994114061	477.2522744814764	964.7919739446316	1479.647577886123	460.0660888977887	917.7309557464715	1507.679993765898	467.5362396057944	961.7005361792041	2106.544789491632	1116.376182995551	863.4318618759179	1476.421328865264	264.118839606224	965.1726036607612	1455.138308019692	312.9151684924446	864.0130977637981	1982.060765554423	1066.750896537981	964.0077652468275	1617.517875446328	434.4323007691386	883.588348425264	1605.821779386941	476.3850547724059	911.005240277828	1692.915713563255	460.9101979319493	870.3279117361509	1684.664995225544	504.7686584489427	899.0231134340374	2007.218668150008	638.1550319047984	844.6601268067199	1948.759563810831	648.0659192742801	878.0276860362366	2021.342326538077	747.610290768743	836.139473339386	1960.531569149908	757.4186265541201	874.1162028524288	2155.272368810144	1020.708190874563	1124.82889561163	2319.476863812239	87.07606427003047	1064.248569821364	2139.996458411899	27.16043295877713	1031.045440280654	2160.62380916956	48.15342146801401	1075.010459455044	2149.509603633297	73.05347390352854	1030.749922519721	2071.665754032848	1104.055500272949	1173.181658501092	2355.892785572597	46.61665055219206	1022.564001269176	2300.613718319527	36.72614508588373	1129.10116489621	1973.571295317222	1069.813251049453	1056.90330802582	2213.684065215693	179.3075837249673	1101.133210089115	2166.886057920025	185.0808168432296	1072.225969994458	2210.238992323033	258.2448596756816	1119.281934450851	2165.421477049202	263.457553	1089.387785227377	2172.99505913044	675.9115854631414	1169.362650048085	2121.495547086082	649.3200477760421	1124.706590829932	2115.118114244237	768.0574113447735	1176.853090320943	2065.575056434503	743.2273394987456	1135.218889359651	
564	3.753333333333333	2161.208625993389	1015.619441484566	904.4902053008797	1476.88429164943	480.2569546697733	963.035058198609	1490.048930715856	462.9228976131681	916.1698336480663	1517.514565265777	470.1653928003163	960.5452313259832	2105.439234704063	1108.431113343797	863.1663491287329	1484.937190060377	266.9687971868917	964.1453620634335	1465.410482502347	315.6843692713476	862.564337755021	1980.473189482796	1059.968085047803	962.3721813956457	1628.160881970761	434.0771285771768	882.7939272117585	1617.482358491466	476.6393741112802	909.6713981692275	1704.239282397579	458.4175938421566	869.4323101003267	1697.030742973678	502.8850608534375	897.5023442611646	2015.287472903574	630.5538734210305	844.070292453877	1956.254903035253	638.8525030643998	876.9199809493326	2026.429432807333	740.3577186439144	835.4030112907433	1965.039897742857	748.4927290076845	872.869158778969	2152.342059355728	1016.233847641211	1125.238090308193	2298.109277491798	84.85828172221723	1061.461666449124	2116.959671971822	27.97409366604119	1029.924579892853	2138.003564739451	49.63286334692006	1073.393521241097	2127.822434316039	73.84087226027017	1028.424211774858	2069.328304100253	1095.880950942216	1172.847542849788	2333.892031277852	43.20003742102119	1021.062914971578	2277.71790407513	36.67949631422702	1128.203322269327	1971.03199363154	1063.803258670018	1054.90341473169	2198.549159534358	178.3720079672556	1099.106682090907	2151.129389010861	186.4809665725726	1071.45867629387	2199.163827298312	257.3543946054818	1117.940347080072	2153.721485456431	264.790233043411	1089.261532056467	2171.625617746998	672.4636804533503	1169.49852367603	2120.587582997244	645.8236389464047	1124.324974825211	2113.326407998332	764.3974917925409	1176.78725815539	2064.147803285013	739.4655893904808	1134.750618492043	
565	3.76	2159.569763434542	1008.968696264952	905.1461117152517	1487.410590577901	482.0909344978641	960.8924000399613	1501.248394501366	464.5032301591391	914.3286726033668	1528.048698050635	471.8240255361459	959.0463669677574	2104.386079561515	1100.402514570968	862.9399450074505	1495.168638862503	268.7848344440643	963.5127841032901	1477.284303209755	316.9246092442329	861.3584998724959	1978.744275642722	1053.848491040978	960.6153739417454	1639.816072149281	433.0102443788618	882.0188833674966	1630.026175094037	476.1725941203329	908.2420596858227	1716.489062997972	455.3927537732691	868.5811080614064	1710.180020223549	500.480146203433	895.9240008123237	2023.836464815737	623.362695961404	843.6010696285848	1964.222035414408	629.9349237507979	875.8845549733725	2031.768681629343	733.4383561657061	834.7442993973937	1969.781571236828	739.781176062639	871.6134187030806	2149.272020233085	1012.007920779358	1125.854541501189	2276.057046487222	83.56223397333299	1059.327227902917	2093.779895283964	28.83938903842431	1029.168270840196	2115.149207763734	51.05566177111866	1072.236220293553	2105.673895753939	74.66826176254558	1026.724962590097	2066.792445090742	1088.099502731455	1172.519872690687	2311.366242870042	41.18057677685115	1020.024274368904	2254.58986369046	37.12766881858745	1127.624912598102	1968.485094467301	1058.397847692963	1052.790688913556	2182.344191740278	177.8070495025451	1097.574742790852	2134.546710658496	188.1508936947277	1070.967263057652	2186.837807289863	256.7001846092483	1116.900838043476	2141.000736391806	266.237825842234	1089.232025836367	2169.247455167425	669.0460651637057	1169.594991353185	2118.58286844053	642.565099715075	1123.910079423277	2110.843342471736	760.9947100301854	1176.759315181716	2061.951348310542	736.1518540851033	1134.313274508088	
566	3.766666666666667	2157.726082969056	1002.233919282057	905.9171858985953	1498.526065407254	482.7191745781348	958.3773809959614	1513.165208826588	464.7695395494416	912.2223890962119	1539.217607913772	472.4879967592769	957.197437822088	2103.279372053928	1092.555062299831	862.7347243659881	1507.0503674986	269.5342796911113	963.3218588944201	1490.656895316098	316.5978146550069	860.449059346741	1976.899608521049	1048.545620292009	958.8469740742188	1652.423559072098	431.2722826940956	881.2711843919443	1643.365349039858	475.017900564522	906.7428819426732	1729.602516389696	451.9342472634677	867.788285828208	1724.028088594032	497.6368748841384	894.3271516704743	2032.861505510054	616.7703755141279	843.255848933626	1972.699255660918	621.4956954974569	874.9693554346009	2037.359684803144	727.0215096046683	834.1812306824967	1974.790184288	731.4446225703965	870.399377332644	2146.193040272972	1008.063256215875	1126.662762724199	2253.458396070151	82.96830617273127	1057.877968255985	2070.542349683152	29.63948117492836	1028.750825070616	2092.141764247715	52.28371761621152	1071.523477764586	2083.161976838916	75.42829311244731	1025.640392236365	2064.064750642315	1080.968273797359	1172.229907634823	2288.458765079103	40.27758809456017	1019.450365647333	2231.319865021725	37.82849888676171	1127.367636567501	1966.007199872762	1053.714918827159	1050.685592535994	2165.057481296669	177.4239771556737	1096.548253893868	2117.147067757216	189.8677818403866	1070.714922994814	2173.17892311665	256.1040004142772	1116.17421722122	2127.196257611079	267.5940153739749	1089.263755524553	2165.8040536197	665.674621086458	1169.649618803891	2115.351709808435	639.5590767677662	1123.542963361771	2107.664389582772	757.8923310021313	1176.78041604717	2058.934021379249	733.3361788889528	1133.973739751689	
567	3.773333333333333	2155.696416472977	995.5996413432875	906.7060592368192	1510.161233868941	482.0946036180927	955.5389117698136	1525.711280311226	463.6875079807015	909.8938331739409	1550.947988932149	472.1198666779857	955.0244360881724	2102.012683413074	1085.187719551529	862.5354641551786	1520.499015051195	269.1853284704833	963.598705687116	1505.410875151543	314.6950355747181	859.8780921717143	1974.967932558076	1044.175297953863	957.1913371936895	1665.902987726358	428.9095270188058	880.5656932190834	1657.391795228187	473.2095999417875	905.2167994943915	1743.495480948132	448.1489439053236	867.0743226305595	1738.467695043532	494.4429336670402	892.7654045345691	2042.343447051253	610.9635127631993	843.0361550263792	1981.703936878491	613.7173473592999	874.2052125558953	2043.195974837169	721.2743529234988	833.7315573237644	1980.089305559106	723.644030668844	869.2668143986249	2143.22955763072	1004.418457329304	1127.613196828269	2230.431020441396	82.84028347886208	1057.08175852567	2047.280030771631	30.29203949648464	1028.626821099342	2069.020607814249	53.23000598295982	1071.209188252579	2060.35380943533	76.046941357709	1025.112389519159	2061.189650863859	1074.725306804981	1172.000114969439	2265.276231628952	40.16949070975151	1019.297142012702	2207.954703554491	38.57487593246163	1127.404040382461	1963.665139830269	1049.846540286147	1048.724659665223	2146.724012407862	177.0611801552289	1095.990785017433	2098.9561875508	191.4464990408221	1070.655261881759	2158.176731462851	255.4195878170855	1115.742528655645	2112.289155407486	268.6967643239036	1089.329195374343	2161.281957469937	662.3730938132146	1169.674001266765	2110.822424953099	636.8181082643472	1123.308164493843	2103.80678887421	755.1235719257764	1176.865627270884	2055.078059976615	731.0477429863688	1133.796359050746	
